# xmcd CD database file
#
# Track frame offsets:
#	183
#	36635
#	59608
#	83233
#	119885
#	167918
#	209573
#
# Disc length: 3138 seconds
#
# Revision: 0
# Processed by: cddbd v1.5.1PL2 Copyright (c) Steve Scherf et al.
# Submitted via: CDex 1.51
#
DISCID=710c4007
DTITLE=Airmail - Light Blues
DYEAR=1988
DGENRE=Jazz
TTITLE0=The Halley's Comet Light Blue Blues
TTITLE1=Shifting People
TTITLE2=Oxford Circle
TTITLE3=Fleacircus
TTITLE4=Camomiletea
TTITLE5=Epominonus, Where Are You?
TTITLE6=125/250
EXTD=YEAR: 1988
EXTT0=
EXTT1=
EXTT2=
EXTT3=
EXTT4=
EXTT5=
EXTT6=
PLAYORDER=
